<?xml version="1.0" standalone="no"?>
<!DOCTYPE svg PUBLIC "-//W3C//DTD SVG 20010904//EN"
 "http://www.w3.org/TR/2001/REC-SVG-20010904/DTD/svg10.dtd">
<svg version="1.0" xmlns="http://www.w3.org/2000/svg"
 width="1072.000000pt" height="1072.000000pt" viewBox="0 0 1072.000000 1072.000000"
 preserveAspectRatio="xMidYMid meet">
<metadata>
Created by potrace 1.11, written by Peter Selinger 2001-2013
</metadata>
<g transform="translate(0.000000,1072.000000) scale(0.100000,-0.100000)"
fill="#000000" stroke="none">
<path d="M7488 10715 c-2 -2 -16 -6 -31 -9 -68 -12 -158 -74 -201 -139 -52
-76 -61 -108 -61 -212 0 -91 3 -105 29 -159 36 -71 95 -133 160 -166 28 -14
53 -26 58 -26 4 -1 9 -2 11 -4 11 -9 110 -11 579 -13 296 -1 538 -4 538 -7 0
-3 -106 -113 -236 -245 -537 -547 -1036 -1054 -1256 -1276 l-233 -236 -80 58
c-44 32 -92 65 -107 71 -16 7 -28 17 -28 21 0 5 -4 5 -10 2 -5 -3 -10 -2 -10
3 0 12 -252 137 -355 175 -22 8 -49 18 -60 23 -11 4 -24 8 -30 10 -5 1 -30 9
-55 17 -25 8 -58 18 -75 22 -16 5 -34 9 -40 11 -18 6 -142 32 -171 37 -16 3
-40 7 -54 10 -97 22 -393 34 -545 23 -109 -9 -203 -22 -300 -43 -38 -8 -78
-16 -89 -18 -10 -3 -44 -12 -75 -21 -31 -9 -63 -18 -71 -19 -8 -1 -28 -8 -45
-15 -16 -7 -38 -15 -47 -16 -9 -2 -41 -15 -70 -28 -29 -13 -59 -26 -67 -28
-13 -3 -151 -72 -260 -130 -25 -12 -54 -31 -65 -40 -11 -10 -28 -20 -38 -24
-10 -3 -18 -10 -18 -15 0 -5 -6 -9 -12 -9 -7 0 -24 -9 -37 -19 -20 -15 -31
-17 -59 -9 -41 11 -55 15 -147 33 -69 13 -108 20 -195 31 -76 10 -461 13 -525
4 -33 -5 -82 -11 -110 -14 -27 -4 -57 -8 -65 -10 -8 -3 -33 -8 -55 -11 -44 -7
-69 -12 -72 -15 -3 -3 -2 -2 -58 -15 -47 -10 -54 -12 -57 -15 -3 -1 -13 -4
-53 -13 -11 -3 -58 -19 -105 -37 -47 -17 -89 -33 -95 -34 -16 -5 -45 -17 -133
-57 -45 -21 -85 -38 -89 -38 -3 1 -9 -3 -12 -8 -3 -4 -31 -21 -61 -37 -120
-64 -298 -189 -427 -299 -79 -68 -221 -217 -296 -312 -27 -33 -55 -68 -63 -78
-8 -9 -14 -21 -14 -26 0 -5 -4 -11 -9 -13 -17 -6 -141 -212 -200 -333 -67
-137 -117 -267 -160 -416 -27 -93 -34 -124 -46 -194 -2 -11 -6 -33 -9 -50 -24
-126 -31 -219 -31 -430 0 -184 6 -302 19 -365 3 -14 7 -47 10 -73 3 -27 8 -52
10 -55 2 -4 7 -23 10 -42 25 -155 101 -378 192 -567 30 -62 54 -117 54 -122 0
-5 3 -11 8 -13 4 -1 31 -43 61 -93 55 -91 158 -236 222 -310 85 -99 331 -335
351 -335 4 0 8 -3 8 -7 0 -5 17 -19 38 -33 20 -14 39 -27 42 -30 8 -9 141
-100 146 -100 2 0 21 -11 42 -23 73 -47 261 -138 352 -172 25 -10 59 -23 77
-31 17 -8 36 -14 41 -14 6 0 23 -5 39 -12 30 -12 50 -18 73 -22 8 -1 25 -6 37
-10 35 -11 241 -56 274 -59 14 -1 16 -44 16 -434 0 -307 -3 -433 -11 -434 -6
0 -200 -2 -431 -3 -371 -2 -426 -5 -475 -20 -205 -67 -314 -312 -221 -496 37
-74 90 -140 112 -140 5 0 9 -4 9 -9 0 -11 114 -62 154 -68 17 -3 218 -6 446
-7 l415 -1 1 -712 c1 -556 4 -723 14 -760 26 -93 92 -173 179 -217 62 -32 89
-38 176 -41 163 -5 300 84 355 233 21 55 21 69 22 778 l0 721 416 1 c230 0
433 3 452 7 100 18 212 100 258 190 14 27 27 55 28 60 16 71 22 170 11 182 -4
3 -7 14 -7 24 0 28 -56 125 -92 162 -19 19 -55 46 -81 61 -91 54 -73 52 -864
56 l-122 0 1 480 0 480 22 5 c11 3 55 12 96 21 88 18 83 17 140 33 25 8 50 14
55 15 12 3 84 25 105 33 8 4 17 7 20 8 3 1 18 7 33 13 16 7 31 12 33 12 3 0
29 11 57 24 29 13 57 24 62 25 28 5 335 179 355 201 3 3 20 13 38 24 29 15 40
16 77 7 24 -6 60 -13 82 -16 21 -3 44 -8 51 -10 7 -3 31 -7 55 -10 23 -3 58
-8 77 -10 175 -25 461 -22 625 5 33 6 76 13 95 16 60 10 162 34 235 56 39 12
75 22 80 24 19 4 130 46 175 67 25 11 51 20 58 20 6 0 12 4 12 8 0 4 23 15 50
25 28 10 50 22 50 26 0 4 5 8 11 8 23 0 274 156 317 197 7 7 16 13 20 13 4 0
21 13 38 28 18 15 56 47 85 72 105 89 238 230 347 367 39 49 152 222 152 233
0 5 5 10 10 10 6 0 10 5 10 11 0 6 16 37 35 70 19 32 32 59 28 59 -3 0 1 8 10
18 10 10 14 22 10 25 -3 4 -1 7 5 7 7 0 11 3 10 8 -1 4 4 18 10 32 61 143 93
234 132 373 20 75 24 90 35 147 3 14 7 36 10 50 3 14 8 41 10 60 2 19 7 49 9
65 24 143 25 521 1 628 -4 20 -8 44 -20 132 -3 17 -14 66 -25 110 -11 44 -23
90 -25 102 -3 12 -9 33 -14 45 -5 13 -9 26 -9 31 -1 8 -22 68 -55 157 -47 125
-203 430 -237 460 -3 3 -15 19 -27 36 l-21 31 254 259 c140 142 254 259 254
261 0 5 39 43 44 43 2 0 31 28 64 63 216 224 1096 1117 1102 1117 3 0 4 -84 4
-187 -4 -477 -5 -859 -2 -873 32 -142 156 -266 285 -286 21 -3 48 -7 60 -9 41
-7 141 21 197 55 68 42 112 93 145 168 31 72 36 165 36 674 0 208 4 378 8 378
5 0 5 5 1 12 -8 13 -9 127 -1 170 3 15 1 30 -4 34 -5 3 -6 10 -2 17 10 16 10
57 0 57 -4 0 -5 5 -1 12 4 6 9 160 11 342 2 182 4 340 5 351 6 119 -87 273
-195 321 -23 10 -44 21 -47 24 -3 3 -14 6 -25 8 -31 4 -2052 11 -2057 7z
m-1828 -2754 c120 -19 324 -78 402 -118 15 -7 31 -14 35 -14 23 -1 291 -162
313 -188 3 -3 27 -24 55 -46 52 -42 172 -162 215 -215 14 -17 31 -37 38 -45 6
-7 12 -18 12 -24 0 -6 4 -11 9 -11 20 0 176 -278 224 -400 5 -14 13 -33 18
-42 5 -10 9 -28 9 -41 0 -13 4 -27 9 -32 8 -9 36 -119 47 -185 2 -14 6 -34 9
-45 23 -107 24 -419 1 -531 -2 -12 -7 -37 -10 -55 -10 -63 -44 -183 -76 -269
-35 -94 -110 -253 -122 -258 -4 -2 -8 -9 -8 -15 0 -12 -108 -174 -148 -220
-54 -63 -220 -227 -230 -227 -6 0 -12 -4 -14 -8 -10 -26 -216 -159 -333 -215
-113 -54 -280 -110 -400 -133 -22 -4 -46 -8 -53 -10 -13 -2 -112 -12 -189 -18
-18 -2 -33 -1 -33 2 0 2 26 50 58 106 106 184 201 422 247 616 2 8 4 15 5 15
1 0 3 11 5 25 2 14 6 36 10 50 6 27 21 104 30 160 21 134 26 569 7 604 -2 4
-6 27 -8 50 -3 47 -9 86 -30 184 -3 15 -7 36 -9 47 -9 44 -26 111 -32 125 -3
8 -7 17 -8 20 -6 20 -29 96 -31 103 -1 4 -3 9 -4 12 -1 3 -3 8 -5 13 -10 35
-99 237 -133 302 -19 36 -40 75 -46 87 -6 13 -14 23 -18 23 -5 0 -8 5 -8 10 0
12 -51 92 -65 102 -5 4 -7 8 -3 8 8 0 -46 78 -80 116 -10 11 -23 27 -28 36
-14 25 -131 155 -210 233 -83 82 -101 97 -243 212 l-23 19 92 28 c51 15 101
29 111 32 86 19 109 23 174 30 33 3 61 8 63 9 8 8 336 -4 402 -14z m-2334
-453 c-102 -175 -210 -435 -251 -608 -39 -169 -49 -223 -60 -324 -2 -27 -7
-68 -10 -90 -4 -23 -6 -48 -5 -56 0 -8 0 -26 -1 -40 -5 -111 1 -288 16 -420
12 -112 53 -300 94 -430 12 -36 25 -74 30 -85 5 -11 17 -42 26 -70 31 -91 148
-318 220 -430 89 -137 208 -286 311 -390 110 -110 182 -174 188 -167 3 3 6 1
6 -5 0 -6 18 -23 40 -38 22 -15 40 -32 40 -37 0 -5 -4 -6 -10 -3 -5 3 -10 2
-10 -3 0 -5 -12 -12 -27 -15 -16 -3 -67 -17 -115 -31 -49 -13 -88 -22 -88 -20
0 3 -6 2 -12 -3 -7 -4 -18 -8 -25 -9 -123 -19 -189 -25 -283 -28 -126 -3 -306
14 -410 39 -14 3 -35 8 -46 11 -12 2 -53 14 -90 26 -38 12 -71 22 -74 22 -10
1 -93 37 -178 77 -88 41 -230 128 -272 166 -14 13 -28 23 -33 23 -23 0 -239
219 -302 306 -11 15 -25 32 -30 38 -70 75 -236 418 -260 539 -2 10 -7 28 -11
39 -3 11 -7 30 -9 41 -2 12 -6 33 -9 47 -21 91 -32 233 -30 366 2 112 11 183
39 332 3 15 15 59 27 97 12 39 23 72 23 75 1 3 7 18 13 33 7 16 12 31 12 33 0
12 68 145 109 214 41 69 110 169 135 196 6 7 25 29 41 49 56 70 177 182 280
259 115 87 344 216 384 216 6 0 11 5 11 12 0 6 2 9 6 6 3 -3 49 9 104 27 54
19 111 36 127 39 217 39 224 40 335 44 l77 2 -43 -72z m873 -149 c82 -47 231
-150 231 -161 0 -5 4 -7 8 -4 9 5 252 -237 252 -252 0 -5 7 -16 16 -23 22 -18
96 -126 135 -196 8 -15 30 -55 49 -88 18 -33 33 -61 32 -63 -1 -1 5 -19 14
-40 10 -20 18 -40 19 -44 2 -5 3 -9 5 -10 1 -2 3 -10 5 -18 2 -8 13 -39 24
-68 11 -29 19 -54 19 -55 0 -1 5 -22 12 -46 6 -25 13 -56 15 -70 2 -14 4 -26
5 -26 3 0 19 -99 26 -165 5 -44 5 -277 0 -310 -2 -14 -7 -45 -10 -70 -4 -25
-10 -54 -13 -65 -4 -11 -7 -29 -8 -40 -4 -57 -77 -270 -126 -368 -41 -82 -118
-218 -128 -227 -3 -3 -26 -32 -51 -65 -83 -112 -88 -115 -132 -77 -10 8 -18
12 -18 8 0 -8 -94 54 -98 66 -2 4 -9 8 -16 8 -37 0 -273 219 -371 345 -69 88
-170 245 -158 245 5 0 3 4 -3 8 -12 7 -77 144 -90 187 -2 6 -17 50 -33 99 -17
49 -29 91 -26 94 2 3 0 12 -4 21 -8 15 -13 37 -27 116 -2 17 -7 44 -10 60 -10
56 -12 350 -3 415 5 36 11 79 13 95 3 17 12 59 21 95 9 36 18 75 21 87 16 76
86 243 154 368 34 61 88 146 100 155 4 3 9 10 11 16 5 15 70 94 77 94 3 0 30
-14 61 -31z"/>
</g>
</svg>
